<svg width="128" height="128" viewBox="0 0 128 128" xmlns="http://www.w3.org/2000/svg">
<defs><linearGradient id="g" x1="0" y1="0" x2="0" y2="1"><stop offset="0%" stop-color="#6366f1"/><stop offset="100%" stop-color="#4f46e5"/></linearGradient>
<filter id="sh" x="-20%" y="-20%" width="140%" height="140%"><feDropShadow dx="0" dy="2" stdDeviation="3" flood-color="#0f172a" flood-opacity="0.2"/></filter>
</defs>
<rect x="0" y="0" width="128" height="128" rx="24" fill="url(#g)"/>
<g filter="url(#sh)">
  <rect x="20" y="32" width="44" height="68" rx="8" fill="white"/><rect x="20" y="32" width="44" height="4" rx="2" fill="#16a34a"/>
  <rect x="64" y="32" width="44" height="68" rx="8" fill="white"/><rect x="64" y="32" width="44" height="4" rx="2" fill="#dc2626"/>
</g>
<circle cx="42" cy="74" r="10" fill="#f0fdf4" stroke="#16a34a" stroke-width="2"/><path d="M36 75 L40 79 L48 69" stroke="#16a34a" stroke-width="2" fill="none" stroke-linecap="round" stroke-linejoin="round"/>
<circle cx="86" cy="74" r="10" fill="#fef2f2" stroke="#dc2626" stroke-width="2"/><path d="M81 69 L91 79 M91 69 L81 79" stroke="#dc2626" stroke-width="2" stroke-linecap="round"/>
<circle cx="64" cy="64" r="10" fill="white" stroke="#e2e8f0" stroke-width="2"/><path d="M57 64 H71 M60 60 L57 64 L60 68 M68 60 L71 64 L68 68" stroke="#4f46e5" stroke-width="1.8" stroke-linecap="round" stroke-linejoin="round"/>
</svg>